Coordinates
version=1
nRows=24
nColumns=22
inDegrees=yes

Units are S.I. units (second, meters, Newtons, ...)
If the header above contains a line with 'inDegrees', this indicates whether rotational values are in degrees (yes) or radians (no).

endheader
time	pelvis_tilt	pelvis_list	pelvis_rotation	pelvis_tx	pelvis_ty	pelvis_tz	hip_flexion_r	hip_adduction_r	hip_rotation_r	knee_angle_r	ankle_angle_r	subtalar_angle_r	hip_flexion_l	hip_adduction_l	hip_rotation_l	knee_angle_l	ankle_angle_l	subtalar_angle_l	lumbar_extension	lumbar_bending	lumbar_rotation
      2.50000000	     -0.90310275	     -2.99389291	     11.86284131	     -0.49293999	      0.93522958	      0.27008288	     27.78754950	      2.99530080	      8.07652490	    -16.73352330	      8.47014564	      7.62882923	     -2.36992530	      4.32930832	     12.41940223	    -20.36390238	     17.86518950	    -12.17166024	     -7.24015681	      2.67946957	     -8.39072161
      2.51000000	     -0.86667976	     -3.06584972	     12.18187555	     -0.48422560	      0.93409496	      0.26852445	     27.66414321	      3.12098033	      8.16685471	    -15.78998064	      8.60693334	      7.78623453	     -2.94598042	      4.17505103	     12.66465195	    -20.43833298	     18.04471151	    -11.94936295	     -7.22850423	      2.77640453	     -8.46083778
      2.52000000	     -0.87569992	     -3.13391706	     12.49305303	     -0.47542637	      0.93291219	      0.26697056	     27.63551980	      3.24385470	      8.13217542	    -15.21565606	      8.66578591	      7.78620889	     -3.46120873	      4.03796852	     12.93075260	    -20.55112164	     18.19983968	    -11.78786651	     -7.16040785	      2.85932425	     -8.52059110
      2.53000000	     -0.89433104	     -3.19091204	     12.80582022	     -0.46651544	      0.93175959	      0.26538674	     27.64723195	      3.36123169	      7.98226120	    -14.99241536	      8.66893582	      7.68782887	     -3.95140591	      3.91626753	     13.19611380	    -20.70582874	     18.30919359	    -11.65281571	     -7.07482149	      2.93391380	     -8.58782735
      2.54000000	     -0.90219150	     -3.25210557	     13.11324507	     -0.45745592	      0.93068426	      0.26379526	     27.67635535	      3.49989325	      7.75065941	    -15.10606764	      8.61013329	      7.44553676	     -4.43806028	      3.78491695	     13.44372779	    -20.89581583	     18.35373695	    -11.44616578	     -6.98735553	      3.02035524	     -8.66284154
      2.55000000	     -0.93515003	     -3.31895306	     13.38220933	     -0.44823386	      0.92963857	      0.26223932	     27.74266867	      3.66938855	      7.54565096	    -15.49691936	      8.42203074	      6.86685729	     -4.87534013	      3.65654404	     13.64783501	    -21.13870395	     18.37969113	    -11.10289166	     -6.85686073	      3.10725934	     -8.68117825
      2.56000000	     -0.97657111	     -3.41324102	     13.66919532	     -0.43891158	      0.92866148	      0.26062382	     27.82859895	      3.85813007	      7.31785716	    -16.11536906	      8.11295081	      6.37405383	     -5.24151722	      3.51053193	     13.86156031	    -21.48622808	     18.32855990	    -10.83320007	     -6.69838056	      3.23425101	     -8.73234252
      2.57000000	     -1.01807413	     -3.54368188	     13.94415350	     -0.42947154	      0.92779276	      0.25899977	     27.90915746	      4.09242670	      7.15273496	    -16.88003691	      7.64492781	      5.83030404	     -5.53381062	      3.33723162	     14.03892972	    -21.95387309	     18.20874116	    -10.48717631	     -6.52160757	      3.40813046	     -8.76227604
      2.58000000	     -1.05869664	     -3.71666301	     14.19981939	     -0.41992050	      0.92705678	      0.25736526	     27.97995549	      4.37940425	      7.07956248	    -17.73015017	      7.03992173	      5.28346256	     -5.74332599	      3.13395838	     14.17103755	    -22.55187813	     18.01099075	    -10.05804466	     -6.32589004	      3.63913407	     -8.76449356
      2.59000000	     -1.08860083	     -3.93325403	     14.43524436	     -0.41027408	      0.92649169	      0.25571499	     28.02859064	      4.71976997	      7.09019802	    -18.61423007	      6.35007489	      4.80213156	     -5.86292433	      2.90149833	     14.24951574	    -23.30593125	     17.70607647	     -9.53394512	     -6.12549137	      3.93101509	     -8.73516117
      2.60000000	     -1.09746794	     -4.21482305	     14.64964938	     -0.40054412	      0.92612690	      0.25402720	     28.03560952	      5.13085439	      7.17454528	    -19.47342785	      5.62518448	      4.51602688	     -5.87857733	      2.62246294	     14.27372565	    -24.24760167	     17.27499947	     -8.99084700	     -5.92739038	      4.31370519	     -8.65732836
      2.61000000	     -1.10044987	     -4.48660063	     14.83664240	     -0.39076141	      0.92594568	      0.25227032	     28.04636823	      5.53115991	      7.25500980	    -20.37812679	      4.99741871	      4.17734033	     -5.77688699	      2.37472649	     14.18139144	    -25.38701566	     16.69878073	     -8.09518585	     -5.73926005	      4.70430564	     -8.55529374
      2.62000000	     -1.06879025	     -4.79088173	     15.00138082	     -0.38093144	      0.92598230	      0.25045308	     27.99341526	      5.96185078	      7.34251478	    -21.23102393	      4.46266111	      4.05601502	     -5.54837255	      2.10719080	     13.96119575	    -26.77156576	     15.94225227	     -7.14826205	     -5.58372541	      5.15243900	     -8.40016577
      2.63000000	     -1.01143192	     -5.08592389	     15.14724775	     -0.37107855	      0.92621545	      0.24855957	     27.88373044	      6.37299479	      7.39606111	    -22.04660863	      4.07988736	      4.04758687	     -5.18205071	      1.85463300	     13.58118651	    -28.40296925	     14.96743394	     -6.00264845	     -5.46313237	      5.60867581	     -8.20651347
      2.64000000	     -0.92331544	     -5.35729102	     15.27847056	     -0.36122573	      0.92663944	      0.24661462	     27.69751575	      6.75122092	      7.41204702	    -22.80550949	      3.83720064	      4.11191616	     -4.67121674	      1.61356073	     13.01611668	    -30.28977111	     13.74655954	     -4.68768592	     -5.39057777	      6.05041988	     -7.98361269
      2.65000000	     -0.79564617	     -5.57708472	     15.42606173	     -0.35140764	      0.92727067	      0.24453481	     27.40170710	      7.04863186	      7.33583104	    -23.47890608	      3.80351121	      4.21204802	     -4.03879958	      1.39524128	     12.30133369	    -32.39438365	     12.24007164	     -3.08904285	     -5.38194920	      6.45515269	     -7.73719360
      2.66000000	     -0.65660518	     -5.77284005	     15.56348163	     -0.34166166	      0.92800919	      0.24247058	     27.04674941	      7.31259492	      7.20790365	    -24.08280764	      3.89610335	      4.29400247	     -3.22732557	      1.14564929	     11.35886061	    -34.72908792	     10.49703688	     -1.40439423	     -5.40530784	      6.82493013	     -7.44564149
      2.67000000	     -0.48536805	     -5.92150884	     15.73136008	     -0.33204524	      0.92890675	      0.24037860	     26.57308379	      7.51004749	      7.01736854	    -24.55725227	      4.10435414	      4.35363581	     -2.27726723	      0.86838202	     10.28123354	    -37.24692074	      8.54662115	      0.42886812	     -5.49241972	      7.13731093	     -7.15353097
      2.68000000	     -0.28098043	     -6.03782351	     15.94464414	     -0.32259976	      0.92993018	      0.23826281	     25.99452658	      7.66004672	      6.77499133	    -24.92000825	      4.42749899	      4.38102393	     -1.20331664	      0.53276432	      9.11103806	    -39.89707002	      6.48478544	      2.32917443	     -5.63959076	      7.41047888	     -6.87111778
      2.69000000	     -0.08471907	     -6.14119808	     16.16317669	     -0.31338451	      0.93097122	      0.23623218	     25.38033341	      7.78632743	      6.47837278	    -25.18733344	      4.76996855	      4.37381389	      0.03834747	      0.11282104	      7.81319479	    -42.66145077	      4.43338141	      4.06491643	     -5.80868169	      7.64206984	     -6.53073702
      2.70000000	      0.12265534	     -6.23166269	     16.41552290	     -0.30441595	      0.93205530	      0.23427361	     24.69511434	      7.88966755	      6.13971393	    -25.33309844	      5.14162004	      4.35136049	      1.40142538	     -0.39946441	      6.46931979	    -45.48722383	      2.52890348	      5.58605993	     -6.01645769	      7.83614457	     -6.17960030
      2.71000000	      0.32977094	     -6.32220922	     16.67699050	     -0.29569781	      0.93314147	      0.23242981	     23.96417711	      7.98849406	      5.76423000	    -25.36839617	      5.51171346	      4.32836148	      2.87647933	     -1.01576336	      5.08219199	    -48.33669740	      0.88862012	      6.73782454	     -6.25067942	      8.00140450	     -5.78928768
      2.72000000	      0.53951672	     -6.41574791	     16.94404686	     -0.28722180	      0.93422248	      0.23070456	     23.19110742	      8.09315417	      5.37960943	    -25.30673749	      5.88252937	      4.31591462	      4.43208250	     -1.73447251	      3.68355027	    -51.16222543	     -0.40520857	      7.48344877	     -6.51131762	      8.14272590	     -5.35400616
      2.73000000	      0.76698808	     -6.51187105	     17.19494835	     -0.27896286	      0.93532947	      0.22912837	     22.35388207	      8.22436949	      5.04640778	    -25.14012189	      6.25480417	      4.31655224	      6.02014319	     -2.54228482	      2.30466157	    -53.91867750	     -1.33026466	      7.82645190	     -6.81797973	      8.26302560	     -4.87746158
